<svg width="22" height="12" viewBox="0 0 22 12" fill="none" xmlns="http://www.w3.org/2000/svg">
<path d="M1.84766 9.59766V11.4023H20.1523V9.59766H1.84766ZM2.87891 5.85938L1.67578 5.17188L2.49219 3.83984H0.902344V2.46484H2.49219L1.67578 1.08984L2.87891 0.402344L3.65234 1.77734L4.42578 0.402344L5.62891 1.08984L4.85547 2.46484H6.40234V3.83984H4.85547L5.62891 5.17188L4.42578 5.85938L3.65234 4.52734L2.87891 5.85938ZM9.02344 5.17188L9.79688 3.83984H8.25V2.46484H9.79688L9.02344 1.08984L10.2266 0.402344L11 1.77734L11.7734 0.402344L12.9766 1.08984L12.2031 2.46484H13.75V3.83984H12.2031L12.9766 5.17188L11.7734 5.85938L11 4.52734L10.2266 5.85938L9.02344 5.17188ZM21.0977 2.46484V3.83984H19.5078L20.3242 5.17188L19.1211 5.85938L18.3477 4.52734L17.5742 5.85938L16.3711 5.17188L17.1445 3.83984H15.5977V2.46484H17.1445L16.3711 1.08984L17.5742 0.402344L18.3477 1.77734L19.1211 0.402344L20.3242 1.08984L19.5078 2.46484H21.0977Z" fill="#040C2D"/>
</svg>
