<svg width="20" height="17" viewBox="0 0 20 17" fill="none" xmlns="http://www.w3.org/2000/svg">
<path d="M9.88281 5.5H10C10.6771 5.5 11.263 5.7474 11.7578 6.24219C12.2526 6.73698 12.5 7.32292 12.5 8V8.15625L9.88281 5.5ZM6.28906 6.16406C5.97656 6.78906 5.82031 7.40104 5.82031 8C5.82031 9.14583 6.22396 10.1354 7.03125 10.9688C7.86458 11.776 8.85417 12.1797 10 12.1797C10.599 12.1797 11.2109 12.0234 11.8359 11.7109L10.5469 10.4219C10.3385 10.474 10.1562 10.5 10 10.5C9.32292 10.5 8.73698 10.2526 8.24219 9.75781C7.7474 9.26302 7.5 8.67708 7.5 8C7.5 7.84375 7.52604 7.66146 7.57812 7.45312L6.28906 6.16406ZM1.67969 1.55469L2.73438 0.5L17.5 15.2656L16.4453 16.3203C16.3151 16.1901 15.8984 15.7865 15.1953 15.1094C14.5182 14.4323 13.9974 13.9115 13.6328 13.5469C12.513 14.0156 11.3021 14.25 10 14.25C7.94271 14.25 6.08073 13.6771 4.41406 12.5312C2.7474 11.3854 1.54948 9.875 0.820312 8C1.10677 7.32292 1.54948 6.58073 2.14844 5.77344C2.77344 4.9401 3.3724 4.30208 3.94531 3.85938C3.63281 3.54688 3.1901 3.10417 2.61719 2.53125C2.07031 1.95833 1.75781 1.63281 1.67969 1.55469ZM10 3.82031C9.47917 3.82031 8.97135 3.92448 8.47656 4.13281L6.67969 2.33594C7.69531 1.94531 8.80208 1.75 10 1.75C12.0573 1.75 13.9062 2.32292 15.5469 3.46875C17.2135 4.61458 18.4115 6.125 19.1406 8C18.5156 9.53646 17.5651 10.8516 16.2891 11.9453L13.8672 9.52344C14.0755 9.02865 14.1797 8.52083 14.1797 8C14.1797 6.85417 13.763 5.8776 12.9297 5.07031C12.1224 4.23698 11.1458 3.82031 10 3.82031Z" fill="#9EA5AD"/>
</svg>
