<svg width="20" height="16" viewBox="0 0 20 16" fill="none" xmlns="http://www.w3.org/2000/svg">
<path d="M17.3477 4.34766V2.5L10 7.09766L2.65234 2.5V4.34766L10 8.90234L17.3477 4.34766ZM17.3477 0.652344C17.8346 0.652344 18.25 0.838542 18.5938 1.21094C18.9661 1.58333 19.1523 2.01302 19.1523 2.5V13.5C19.1523 13.987 18.9661 14.4167 18.5938 14.7891C18.25 15.1615 17.8346 15.3477 17.3477 15.3477H2.65234C2.16536 15.3477 1.73568 15.1615 1.36328 14.7891C1.01953 14.4167 0.847656 13.987 0.847656 13.5V2.5C0.847656 2.01302 1.01953 1.58333 1.36328 1.21094C1.73568 0.838542 2.16536 0.652344 2.65234 0.652344H17.3477Z" fill="#040C2D"/>
</svg>
